
<global>
amp_veltrack=0
ampeg_release=0.35
</global>

<group>
group_label=Group_43-84
lpc_hicc1=84
lpc_locc1=43

<region>
hikey=a3
hivel=127
lokey=g#3
lovel=1
lpc=6JvuQP1tocEOpc1BgXGgwTHpOEEKK+vAQyDTQMgcxcDMXY5AgoI1wD4TNED0gxbAqjfpviTSQUBRLQPAa3q0via6BT+Jnb0/dEsOwBTvrz8weH2/OhLWP0977r/s81M/
lpc_rms=-19.11
offset=1
pitch_keycenter=a3
sample=Violin2Solo_tenuto_half_MF_A3.opus
</region>

<region>
hikey=a4
hivel=127
lokey=g#4
lovel=1
lpc=zeLvQKC3nMFIKsNBrIuUwerOM0FxWPLAFqaVQOksBMBsux8/qcfVvqxtPL+mzyFA0yFSwG9qG0Bg/8K+MJmOv+XaAUCkDQDAEoakP6BhnL6nR/s+FLKnvyhwwT9WLiO/
lpc_rms=-17.73
offset=35
pitch_keycenter=a4
sample=Violin2Solo_tenuto_half_MF_A4.opus
</region>

<region>
hikey=a5
hivel=127
lokey=g#5
lovel=1
lpc=W2CzQC87tMA7gapABC/hv/asFUDRs5W+EjS/P/jItL7nsAxAeP5Zvjjpsz7AtaQ/182+P4hVWL8kNZ8/jDrjP8lgor6k64A/YcwwP0TToT+Tsiu+V0v0P0P0lr9EET1A
lpc_rms=-15.50
offset=273
pitch_keycenter=a5
sample=Violin2Solo_tenuto_half_MF_A5.opus
</region>

<region>
hikey=a6
hivel=127
lokey=g#6
lovel=1
lpc=1MEpQXjglcBLX01Au0NQQBFp3z/uOZw/z+kMQOO1/z/oCmM+5ftCQCMvk0DaG4S/V7lYQCch18BhtwrAL113QI+vhsAeU22/mRyCv/+D7b2j372/l6xWv8IXcz/NvpvA
lpc_rms=-16.68
offset=750
pitch_keycenter=a6
sample=Violin2Solo_tenuto_half_MF_A6.opus
</region>

<region>
hikey=b3
hivel=127
lokey=a#3
lovel=1
lpc=aEEQQRj0zMFF0glCm7fkwcUahEF8ExfBhKHsQBlnrcC7ATdAbd1OvyJ8Bb966Sk/GURYv3idez9oLI8/sN6YwEDhw0Box1TA1UhAP4WlM7+6ODu+4+LpP6XM+b+SC1M/
lpc_rms=-17.64
offset=4
pitch_keycenter=b3
sample=Violin2Solo_tenuto_half_MF_B3.opus
</region>

<region>
hikey=b4
hivel=127
lokey=a#4
lovel=1
lpc=wWTSQO9kfsGLx5BBA+xgwRpUGkH2srnAq6EcQHNyIMCzmbZAG2PnwOj3wUBb9WvAUmunPzOnAD9ZfD6/XODQPCB4ST/e9Zm/n4yMPvpLEkC6x2PAdEo7QDd5+b8fBT0/
lpc_rms=-19.08
offset=39
pitch_keycenter=b4
sample=Violin2Solo_tenuto_half_MF_B4.opus
</region>

<region>
hikey=b5
hivel=127
lokey=a#5
lovel=1
lpc=AcrBQLt3RMAraqNAq555v+m7aECijMC+nrGAQAnkPr/TllRApKHIPsYBJECFfWg+w2VRQM7trz3ywyhAUDMVP64pRkBBfzC+rURUQLEwWT5tHC9A3G3kPkSKT0CdVi2/
lpc_rms=-16.03
offset=85
pitch_keycenter=b5
sample=Violin2Solo_tenuto_half_MF_B5.opus
</region>

<region>
hikey=b6
hivel=127
lokey=a#6
lovel=1
lpc=2JdaQUU20sBS/j1AE0YqwHUKSEA6z68/+9SYQBit8r66qr4/+TJvPzi9hj5h3oM/yFg3wWPIj0CvRgM/ksPkP1hkzL7ZKii/an1XwGdzNT/m1Ey/qZ9dP3M7JT7L2lY/
lpc_rms=-19.45
offset=349
pitch_keycenter=b6
sample=Violin2Solo_tenuto_half_MF_B6.opus
</region>

<region>
hikey=c#4
hivel=127
lokey=c4
lovel=1
lpc=Pa6vQRBXd8KjsJ1CUW9ywvSY7UHXpVvBWmwsQfWkBcFstoVARAyKPeWaoMBoJyZBSQhRwS7xKEGcpHa/+MU0wRAMnkG0Ao7BPTcMQTm5YD9OjQDBVIIfQZma9MCz0TNA
lpc_rms=-12.75
offset=127
pitch_keycenter=c#4
sample=Violin2Solo_tenuto_half_MF_C#4.opus
</region>

<region>
hikey=c#5
hivel=127
lokey=c5
lovel=1
lpc=XRZBQXy+wsFJUMZBZfJlwQ6iuUBEWMC/C4uovmX6dL+OFWhA4uiowAMJX0A/tRnAYjbAPkCOXz6EKxhAVIyBwFGmkkBqmKi/r3mRvyMtZkC13jvAs3vJP8Z0RL6XuMA+
lpc_rms=-11.26
offset=2
pitch_keycenter=c#5
sample=Violin2Solo_tenuto_half_MF_C#5.opus
</region>

<region>
hikey=c#6
hivel=127
lokey=c6
lovel=1
lpc=sob1QEFjh8AW1KdAKmOlv5Ym/j/mk9M/gWdnvdoVBEBdDjQ/ycy7PyV8xT+2ZJm+EvNQQA96RL97pgZA2oigPxjA5j7LcgdA32YsP8Cghz8xkhFABtlRwPz56b5GAj0+
lpc_rms=-14.27
offset=98
pitch_keycenter=c#6
sample=Violin2Solo_tenuto_half_MF_C#6.opus
</region>

<region>
hikey=E7
hivel=127
lokey=c7
lovel=1
lpc=hbqsQUJSrMBogCvA6hc+QNQoikCc/HtA0T6dP0KYZUBzG1a+ErE3QTHyT8HG683B1zyKQf3ybUDyc6W/Vl1RwFH9ML/VO7O/hHpwP6G3F8CbdKbA/BEzQRvW00A9eBLB
lpc_rms=-16.38
offset=132
pitch_keycenter=C#7
sample=Violin2Solo_tenuto_half_MF_C#7.opus
</region>

<region>
hikey=d#4
hivel=127
lokey=d4
lovel=1
lpc=nqA2QSbl+cFDAiVCJdkPwoG8vEGIKnrBkwJDQYzaD8HL+tNAYViwwHpoqECUrJvANyCvP4946j9G+1c/R0PRwNDXFEEbBrHAl74WPzeteT5kQ62/3jJYQOejZ8A6j+o/
lpc_rms=-16.60
offset=496
pitch_keycenter=d#4
sample=Violin2Solo_tenuto_half_MF_D#4.opus
</region>

<region>
hikey=d#5
hivel=127
lokey=d5
lovel=1
lpc=LzeVQEcBGcFZ9x5BVgHMwPjCgUAhV1fA+W8/QMDvD8BBkI0/Ngy0PuvrKr/XzIq+qF2BP5dTl78l74Q//v8UvcLhx74Tx9699sMlP+MnfT/8IP+/kfKvP2tIKz7buEq+
lpc_rms=-19.20
offset=34
pitch_keycenter=d#5
sample=Violin2Solo_tenuto_half_MF_D#5.opus
</region>

<region>
hikey=d#6
hivel=127
lokey=d6
lovel=1
lpc=5LkIQfTSn8CQyoNA1glOv8jmbUDjhjO/gVfVP1KBnb4Sfqg/M1ikPvfoaj8OUMY+RA+PP1MDBD9R1UI/90+YPruJoT86BJG+f6kZQLWW7sBqLSdA/mcQv+Vwjr5047q/
lpc_rms=-19.43
offset=1
pitch_keycenter=d#6
sample=Violin2Solo_tenuto_half_MF_D#6.opus
</region>

<region>
hikey=f4
hivel=127
lokey=e4
lovel=1
lpc=W7P+QPhsrMEJ8+JBWdHDwZEEgEGkVCHBSH/UQN8RXsCLb6I/AY4VvrXXrb6UIcy+PsPPP2bGKcCV9G9AWV6jwCCp0kAoTLnACogXQIfpuz/wJlHAWO8iQEh44L/nBW0/
lpc_rms=-19.02
offset=38
pitch_keycenter=f4
sample=Violin2Solo_tenuto_half_MF_F4.opus
</region>

<region>
hikey=f5
hivel=127
lokey=e5
lovel=1
lpc=aD2FQCjB98DhyPxAoI2bwKE8G0DjvL099e+Dv6pZjD5BSas/WOrNv0RakD80Vy2/7AKWPkuHZD49Voq+bm0hP585K76YUk6+QciDP2hvsr4Bkhe+Ku9JP2ljF78FfMU+
lpc_rms=-20.68
offset=362
pitch_keycenter=f5
sample=Violin2Solo_tenuto_half_MF_F5.opus
</region>

<region>
hikey=f6
hivel=127
lokey=e6
lovel=1
lpc=TIkBQeSEYsDvuBJAEo67P8+JOz9TnkJAJ2UGP1thqz55YdA+aE+dP35IDT8ouaI+hc+vPyGu8D7kZHM/Xel+Pgszgj925tTAxkM6QLhRBb6pMdO//wq1Phv2M8C23Fg/
lpc_rms=-17.23
offset=69
pitch_keycenter=f6
sample=Violin2Solo_tenuto_half_MF_F6.opus
</region>

<region>
hivel=127
key=g3
lovel=1
lpc=ZEYkQf7R3cFTEApC2FPTwcHva0ExCBrBY2gTQXf2A8F2N9BAzp+uwP3dtEAv1K7A7R7kP3TdJkC6BDjAxUawP6nzyb8jf1JAExCTv7Y2acCpXWRAomasPmoeD8CIxp4/
lpc_rms=-16.93
offset=163
sample=Violin2Solo_tenuto_half_MF_G3.opus
</region>

<region>
hikey=g4
hivel=127
lokey=f#4
lovel=1
lpc=Hdj2QNzllcFd6a9B+dyCwde6KkFILwPByOq/QPIhu8AoEOpAREDxwAO5rUBiZJDAwJlbQM7IY7+Kpm6/H05hPmYYOz/dC/i9QYgXPxQP+L6x+bc8stP+PTMvGD/ZtgC/
lpc_rms=-18.41
pitch_keycenter=g4
sample=Violin2Solo_tenuto_half_MF_G4.opus
</region>

<region>
hikey=g5
hivel=127
lokey=f#5
lovel=1
lpc=TQ08QEuNVsD62itAphq8v23dyj+ruYC/kZ+nP3Cysr9EucM/a3F0v6qHyz4BYxk/bNuBPiKlnb6e/LY+LQt6vHku1j0QD7c+Yjk+PpoULj/THhC/qf/0PqGp+LxJarU+
lpc_rms=-18.44
offset=38
pitch_keycenter=g5
sample=Violin2Solo_tenuto_half_MF_G5.opus
</region>

<region>
hikey=g6
hivel=127
lokey=f#6
lovel=1
lpc=pFYLQchai8DQ6VZAG/zfPs5Phz+KxyVA1lNePw/15j6p0Ng/G3/UP3Vppz/5lFM/uWEfQF+0Hz/YbThAAIfEwP0sGkAibJ8/+veWv/jZA0AroW+/CFwEPs9hTj8poPw+
lpc_rms=-17.12
offset=814
pitch_keycenter=g6
sample=Violin2Solo_tenuto_half_MF_G6.opus
</region>
</group>

<group>
group_label=Group_0-42
lpc_hicc1=42
lpc_locc1=0

<region>
hikey=a3
hivel=127
lokey=g#3
lovel=1
lpc=CkeaQYz4X8IP85NCKT5nwlM09EG5L37BqZNRQXCFPcF07/1AvYoawMWEL8CT05VA0MeGwL6kc0C3GZC/xbN/wLiB3EBpAafAPDwpQGjyFr/cuVPA/5HlQHkYv8AUaRVA
lpc_rms=-23.77
offset=1315
pitch_keycenter=a3
sample=Violin2Solo_tenuto_half_PP_A3.opus
</region>

<region>
hikey=a4
hivel=127
lokey=g#4
lovel=1
lpc=Gk5AQaBpCsIdJjZC254Twkp9wkEaR5XBIVZ6QbGCTMHYtDNB/DYkwXA39UCVZ27AXm4AP+1sMj/x2eQ/tDqWwKm+kUDWxiDAY6dmP59QzT2PcfG9R+a+vggGIT5nCoA+
lpc_rms=-22.89
offset=7409
pitch_keycenter=a4
sample=Violin2Solo_tenuto_half_PP_A4.opus
</region>

<region>
hikey=a5
hivel=127
lokey=g#5
lovel=1
lpc=7Q/NQBSS7cCOffhAOxFnwCrjhECT3ifAYHJxQDPEwL4NDwI/zw9lPw6Kzj+MiKC+IxDZP2nnMD7/t9c/a4zbviEtzz9krbo/RichvzAEzT9CZDI/5PzcP2F/6r8llW1A
lpc_rms=-21.15
offset=390
pitch_keycenter=a5
sample=Violin2Solo_tenuto_half_PP_A5.opus
</region>

<region>
hikey=a6
hivel=127
lokey=g#6
lovel=1
lpc=Cc1cQSus8MDiDRBBmLyjvyngXUC74Lu/YOvqP/pcDr9k5BG/zUKTvdo+NEBXPjS/LoecQPnD9sCv7WPAfPaUQApW68AoQIFAuA4+wCK1aUAFZbK/w8c2QDnX3D9tIWG+
lpc_rms=-22.74
offset=739
pitch_keycenter=a6
sample=Violin2Solo_tenuto_half_PP_A6.opus
</region>

<region>
hikey=b3
hivel=127
lokey=a#3
lovel=1
lpc=dmaoQZCPdMKkSJhCP3FPwkR8nEEZOuvACn0dQTu+RsEVHj1B7SsVwebuoUCK7hfAqdFGQGWMWMDB67ZAv4Yuwc0iV0EgwRrB54WaQEQEq8C8k7FA+0sewBAP7b5YFHU/
lpc_rms=-22.51
offset=197
pitch_keycenter=b3
sample=Violin2Solo_tenuto_half_PP_B3.opus
</region>

<region>
hikey=b4
hivel=127
lokey=a#4
lovel=1
lpc=lhbGQE24csFLA41BkDVSwRew8ECx7pTAW1SZQPlgqsCs1qlA9eWswMxmuUD/bqHAcb5NQD5mvL9ojBk/1z7Fvj3f6j7B7hS/z0MZPxXmcz/+QwjACfmaP1AdNL5IPxE9
lpc_rms=-25.31
offset=1583
pitch_keycenter=b4
sample=Violin2Solo_tenuto_half_PP_B4.opus
</region>

<region>
hikey=b5
hivel=127
lokey=a#5
lovel=1
lpc=byftQNPWZ8CZzthAWNfCv9Vdk0AGuH++EY2KQBIO6j4T/RpA1ZwmQOQjZD+wJVVAvRlrP+ZxQ0DAkqY/cN0GQNBCOEABJos+fWqKQLZBa77FiYlA4KDpvr0Lp0BURoi/
lpc_rms=-21.37
offset=1377
pitch_keycenter=b5
sample=Violin2Solo_tenuto_half_PP_B5.opus
</region>

<region>
hikey=b6
hivel=127
lokey=a#6
lovel=1
lpc=2/uZQSJsgsHTUT9BK+mEwLflgkA3o0/AD9wcQWWC9cCkwtlAj+52v2xJnkC2iY3AITyPwYl9cUG4aAvBQ7NgQMNbLcCoZodAKCIMwdZs/UBleKTAowniP+mmlMC9IcZA
lpc_rms=-22.98
offset=557
pitch_keycenter=b6
sample=Violin2Solo_tenuto_half_PP_B6.opus
</region>

<region>
hikey=c#4
hivel=127
lokey=c4
lovel=1
lpc=M1RWQrCPJcPDC1tDfjwkw2hCmELRnwHC9uPMQZtUpcHQLzZBAYN9PkrD6MC9W0m/S5hmQY0JOMFkjONAxTJ/wUEE3EEIq7nBRzDSQFKcDb9jGkPAdHktQSPSKsEsanRA
lpc_rms=-18.02
offset=700
pitch_keycenter=c#4
sample=Violin2Solo_tenuto_half_PP_C#4.opus
</region>

<region>
hikey=c#5
hivel=127
lokey=c5
lovel=1
lpc=RzqsQRLVRMKPaE5C7V4RwpJCwEFaZ1/BnH4DQRDBDcFMAOtAnj3MwHqo6EAutg3BbzktQbTK68Ahg9I/1gwbPqp1mUBfJTPB9CJcQZe/vMAo2p68BS4nwNCaSEDHPNk9
lpc_rms=-16.80
offset=2
pitch_keycenter=c#5
sample=Violin2Solo_tenuto_half_PP_C#5.opus
</region>

<region>
hikey=c#6
hivel=127
lokey=c6
lovel=1
lpc=FjVKQSE7M8Hkfh9B4zmbwM7Y/0D7SUrAblvTQFcu3b+ps5tAHVidPv8aOkDT2VQ/QpSIQJsqt77x7XNAwMKNPvCek0D9vuC/0D7ZQJC4VcDd8gVB3z0XwUP0XkDPIwlA
lpc_rms=-18.50
offset=1180
pitch_keycenter=c#6
sample=Violin2Solo_tenuto_half_PP_C#6.opus
</region>

<region>
hikey=E7
hivel=127
lokey=c7
lovel=1
lpc=x68TQk2rw8G7iptA8v+PQHgU6z6UafxAW1s7QG3xUsBGXwBBZWn5QFM8mcF3yQLCqbEUQplg0cDZDw5Adw6vv62RlcAxC4M/8/6pQGAmKcHWoZJAytLwQCQHB0HEiD7B
lpc_rms=-17.95
offset=1395
pitch_keycenter=C#7
sample=Violin2Solo_tenuto_half_PP_C#7.opus
</region>

<region>
hikey=d#4
hivel=127
lokey=d4
lovel=1
lpc=otTcQaKEncIrn7xC7jRywui2wEFWNoDBH0yiQWezg8HnrANB8guewHJTmUC8RLzAC/mSQCFGTUBnE7rA5PkYwMTHG0Hf2AzBF/vGQPR0ucBeGpA/H1SyQPdx5cD41F5A
lpc_rms=-22.52
offset=1816
pitch_keycenter=d#4
sample=Violin2Solo_tenuto_half_PP_D#4.opus
</region>

<region>
hikey=d#5
hivel=127
lokey=d5
lovel=1
lpc=j3TMQKRZeMG+k5VBQ1JtwWiCHUGFnrPAM14sQHqgyL+4nK8/mZQIvzm27T3C9Se/pIEhP3D3KD8f0HG/iLgYPtj/Kz8E2De/bSV3P7SjOL/OqwY/AspavimUeT50GI49
lpc_rms=-23.99
offset=868
pitch_keycenter=d#5
sample=Violin2Solo_tenuto_half_PP_D#5.opus
</region>

<region>
hikey=d#6
hivel=127
lokey=d6
lovel=1
lpc=kdxBQd8LN8E/EjxB/ji5wCrcuEAbaR7AFD0cQHgKFb9ZsBc+YZaoP73mMb84KqA/N2szvghSLD+0YQk/XBmLPRovhD/jVSO/1UTsP70CN8F25Q1BorLjwIzlDEDi0QnA
lpc_rms=-23.55
offset=844
pitch_keycenter=d#6
sample=Violin2Solo_tenuto_half_PP_D#6.opus
</region>

<region>
hikey=f4
hivel=127
lokey=e4
lovel=1
lpc=u21TQT/4EsKhHTBCfSP1wVvlgkF+SxvB3yrHQEnPw8C1HuNA2FVkwGb9kL99QChA+gWbv0j1A8CpIaBApGjlwImJ50AzQJbA3Z3xP/Ifoj4GZu+/u3xGQOWiLsA3voU/
lpc_rms=-29.78
offset=16046
pitch_keycenter=f4
sample=Violin2Solo_tenuto_half_PP_F4.opus
</region>

<region>
hikey=f5
hivel=127
lokey=e5
lovel=1
lpc=XqGwQMEpRMGUh1lBqmYpwfP5+kBB5ITAnfKEP/80f7+ERB9Azr8cwH/eJEAgpjfA1MozQN6xE8Dqmy5AtaEewPdC+T+BvwvA2VMpQO8b1r+GOps/5eRpv/cD7T4czEg+
lpc_rms=-24.78
offset=3294
pitch_keycenter=f5
sample=Violin2Solo_tenuto_half_PP_F5.opus
</region>

<region>
hikey=f6
hivel=127
lokey=e6
lovel=1
lpc=sChnQY+DZMHTxF5BXi6SwI1frED9aVjA4fqFQGNw078vc/s/lxqtvwZqFEA3owPAD3MhQO5Kvb/QOuk/g9j4v/tLN0ALvXTBMm9QQaMzJ8HSHApAHBBUwCAWCEA3cP+/
lpc_rms=-24.65
offset=1583
pitch_keycenter=f6
sample=Violin2Solo_tenuto_half_PP_F6.opus
</region>

<region>
hivel=127
key=g3
lovel=1
lpc=WkjjQbv0rMJgWeVCpfyuwidLMkJ0VdDBxU3iQSrS6MEuobJB2ugvwYfvUb+NE7VAn62Yvi8qz8BL7hFBYP/qwJafJ0C9g88/YRjPvy1A0T/dywDBh6doQW/PXMFSCcBA
lpc_rms=-26.80
offset=427
sample=Violin2Solo_tenuto_half_PP_G3.opus
</region>

<region>
hikey=g4
hivel=127
lokey=f#4
lovel=1
lpc=x8hRQR8nDcJOMjRCSYsQwu2nu0FiIJjB2CWVQWKyisHjCV9BAj8AwZ/RFL/h2JlAim6IwC8EI0DMBsa/n68LPhP4WkDRFK/A4MSiQD2FB8BgcWE/ZycbwC+zV0CR/L2/
lpc_rms=-23.26
offset=434
pitch_keycenter=g4
sample=Violin2Solo_tenuto_half_PP_G4.opus
</region>

<region>
hikey=g5
hivel=127
lokey=f#5
lovel=1
lpc=2/JoQHv6isB5zH5A9VlIwIAFA0DP5se+lzmdPwwvmr92hpc/tFGQvyY5mD97XnU9jNx6Pze1BL/3wbA+zUIZv3fJKz+olIg9txpgP83txj30tp6+AT03P3noRr+chKg/
lpc_rms=-24.36
offset=1104
pitch_keycenter=g5
sample=Violin2Solo_tenuto_half_PP_G5.opus
</region>

<region>
hikey=g6
hivel=127
lokey=f#6
lovel=1
lpc=JrWXQWuJa8FNyB5BB9guwLp/xkBfF/o8i0R8QOaVx8AWe5NA23gpPi9tJUDuVU4/ZPkNQKb6zz45Ib1AxnWUwd/GPEGsg1bAJ27aP3pHAsDrEsG9CYQAwK7PxUDuI8w8
lpc_rms=-20.87
offset=705
pitch_keycenter=g6
sample=Violin2Solo_tenuto_half_PP_G6.opus
</region>
</group>

<group>
group_label=Group_85-127
lpc_hicc1=127
lpc_locc1=85

<region>
hikey=a3
hivel=127
lokey=g#3
lovel=1
lpc=P2f1QESFqsFBYO1BqWLXwVKImkEvO2zBG4NTQQAwLsHebuBAseR0wOLXCEBhMqi/PGwkvoSx7D+pQqq/l/64v7fBQUB47QzABF+0PyhJl79P0h8/2OxmP3q/rb8VzDc/
lpc_rms=-19.88
offset=3
pitch_keycenter=a3
sample=Violin2Solo_tenuto_half_FF_A3.opus
</region>

<region>
hikey=a4
hivel=127
lokey=g#4
lovel=1
lpc=TU/sQB6qmcHYBbhB4Ih+wcjjDkECqOTAZNCqQP+LAcCt8Is+Oz2Ovx6HrT/Vyre7N8eev8sEkD/KtGI+rDx6v8JQZD9o+LK+gM9TvfYHHT+YTAS//MBZvj//WD9b5/i+
lpc_rms=-19.75
offset=3
pitch_keycenter=a4
sample=Violin2Solo_tenuto_half_FF_A4.opus
</region>

<region>
hikey=a5
hivel=127
lokey=g#5
lovel=1
lpc=QfOXQIuhk8DztIdAp5WTv/h14j8gFHs9rNQzP7BfWj08k/Q/CNUkvoa/RT75cIA/1+TCP8bJWb9tAGk/i0r+PxqbUr9/a5M/eAsDP/BuiT9L5HA+EAV5P8++Db/UlRpA
lpc_rms=-16.40
offset=31
pitch_keycenter=a5
sample=Violin2Solo_tenuto_half_FF_A5.opus
</region>

<region>
hikey=a6
hivel=127
lokey=g#6
lovel=1
lpc=AtYZQRkO7b/nxTZAn/JzvwsWjUCvRTJAAG8/PtU2/L+FFDlAyClYQDHZTkCdwmK//qiJQA0Hm8B0w0DAi9+GP/gBKT4ZzHo/zuBWwJ2UBr94rhRAdWz+P2FjCMBsnSTA
lpc_rms=-17.51
offset=261
pitch_keycenter=a6
sample=Violin2Solo_tenuto_half_FF_A6.opus
</region>

<region>
hikey=b3
hivel=127
lokey=a#3
lovel=1
lpc=3tAJQajix8FB+A1CxCcDwkMJuUHVOoLB8epIQbIVB8EvNXxAXPtsvwPdiz0JE7o8wI+dv5eWAkAUS4k+t+KRwJ8X60Do+NTAepyPQG40EMDEkzK+89/SP/RG278ZRi4/
lpc_rms=-19.53
offset=1
pitch_keycenter=b3
sample=Violin2Solo_tenuto_half_FF_B3.opus
</region>

<region>
hikey=b4
hivel=127
lokey=a#4
lovel=1
lpc=NISNQNVIEcEAVwVBMSiGwKQTkz90jOu+Yo65P6EzEsBSOCVACKbnvxKwJz+vGSO+Rl8FP9Ht+L5vhHg+HLKZPuplTr9nGzE/BmizvoA9Sj/0zYe/MU2sPhVhBz+Bx5i+
lpc_rms=-20.99
pitch_keycenter=b4
sample=Violin2Solo_tenuto_half_FF_B4.opus
</region>

<region>
hikey=b5
hivel=127
lokey=a#5
lovel=1
lpc=5LO6QM4aXsB8lLFAEaIBwMwShEAqYDm+m8wwQD3sSD4CyxhAbSUPP37ZFkBT1ra+1rV5QPNKRb+s1zJAmcXSPg7jFkAiTmY/99f2PzilOz8BeiRAmPLWPP6gSEAqVAi/
lpc_rms=-17.60
offset=17
pitch_keycenter=b5
sample=Violin2Solo_tenuto_half_FF_B5.opus
</region>

<region>
hikey=b6
hivel=127
lokey=a#6
lovel=1
lpc=RDdSQZrqxMDpMFZAu0xdQBS9AUBFKzlAfQdEQH+HgD+082VAnbGjQBXorz4GAsk/cSUawfo7DEAp+0dAlrV4wBNaEb+Jxba+kGnwv8l8er0C4b2/+eYxwMI9n7+w7QZA
lpc_rms=-16.95
offset=305
pitch_keycenter=b6
sample=Violin2Solo_tenuto_half_FF_B6.opus
</region>

<region>
hikey=c#4
hivel=127
lokey=c4
lovel=1
lpc=9tadQcX1X8IY55RCVh+Ewo9RPEJrfgPCulu9QcJ2j8GpMW9B8x1SwXypHkHWiNXAVpdzQA1YoD4dj7e/Qss8v8J0akA/oozAcgk8QFlpkj+PxZDAKbNWQJTsrb8jxuI+
lpc_rms=-13.67
offset=238
pitch_keycenter=c#4
sample=Violin2Solo_tenuto_half_FF_C#4.opus
</region>

<region>
hikey=c#5
hivel=127
lokey=c5
lovel=1
lpc=Al9KQWzn18GneN1BLQyIwbYs8EBk5hvAZWZIPwgjGMBM9Y1A6V+SwHkp3T8ud0a/LZKOP+EBB79bwrc/Yc1AwG6JbkBHara/oOBlvsedMEDa7EjAthx/PzCTUT++yqY8
lpc_rms=-12.74
offset=3
pitch_keycenter=c#5
sample=Violin2Solo_tenuto_half_FF_C#5.opus
</region>

<region>
hikey=c#6
hivel=127
lokey=c6
lovel=1
lpc=aTUVQZPiu8A02aBAGlkTwD2Hd0Cpg0a/9HsxQLQoWb68+S9AiwCMvncGP0B3jIK/AytyQCHyrb9yplZAnJr3vlb5JUBic8U9lvwdQL2YPL4F41hAarp7wIZ5879SnyJA
lpc_rms=-15.56
offset=189
pitch_keycenter=c#6
sample=Violin2Solo_tenuto_half_FF_C#6.opus
</region>

<region>
hikey=E7
hivel=127
lokey=c7
lovel=1
lpc=L8FXQa9oYcDuIUxAatCFvobvLUCKfSNAFUfJPwPFTkD0NRpAVmSLQL/3YcDN3YPBp7cEQcyAWb4sPuI/4FXzvt0gDL88XZ0+M0pzv/XZQr9CSci/8XKKQEKAzkBqvnvA
lpc_rms=-17.99
offset=128
pitch_keycenter=C#7
sample=Violin2Solo_tenuto_half_FF_C#7.opus
</region>

<region>
hikey=d#4
hivel=127
lokey=d4
lovel=1
lpc=aQwsQVbL98GKAC9CZuwfwrPx1EEIhnXBqVArQUDyJ8GJZRVB4IjAwFULE0AWsJe/qExVP9bgwb6m67Y/k3WYwJvGE0GJUS7Bsq4RQS2ktMDamihAp5fKvnl0D7+yGNI+
lpc_rms=-16.84
offset=2
pitch_keycenter=d#4
sample=Violin2Solo_tenuto_half_FF_D#4.opus
</region>

<region>
hikey=d#5
hivel=127
lokey=d5
lovel=1
lpc=gD2JQPQfDcGHEhRBwjTDwKDKVUCHLNG/NUJQPSmrmj4lfBI/JsX3vgA8iL5srD4/u9a/u6Irhb+hSsc/ul24v8sUqz9eX2q/4s/gPqvnWj4OMuq9tTiMPsgf6b32rH49
lpc_rms=-21.15
offset=35
pitch_keycenter=d#5
sample=Violin2Solo_tenuto_half_FF_D#5.opus
</region>

<region>
hikey=d#6
hivel=127
lokey=d6
lovel=1
lpc=e5HbQC5oIsBK0pZAcZRyOzc0h0BFR0y+/WLzPywEQz6lUMA/4kyzPlZ9+z9+St2+B0ouQHdXS7/pIxdAMBiZvaqK5z+TEb899I72P3xcmMCskXY/0r3Cv+Y3zL6zlhHA
lpc_rms=-18.85
offset=173
pitch_keycenter=d#6
sample=Violin2Solo_tenuto_half_FF_D#6.opus
</region>

<region>
hikey=f4
hivel=127
lokey=e4
lovel=1
lpc=Or72QG+BpcEPud1BcETNwT+1lEE3JzfBkiT7QAGo8cDlZ91AkmKmwMWbTkBGB+2/pJCFPwm3qL5QqgI/yk4bwL2fkUC+habAZJeXQFcdNcDctvU+0v2CP+7t3b9sLow/
lpc_rms=-20.23
offset=9228
pitch_keycenter=f4
sample=Violin2Solo_tenuto_half_FF_F4.opus
</region>

<region>
hikey=f5
hivel=127
lokey=e5
lovel=1
lpc=SmqWQMwxEcFHkRRBW3PXwMxNkEB5Eea/5Rs+P/KXw79HkA1AOSjNvyZbtz8BMYO/JIrFPpdvar+bk+s/AI96v84fJz/cZku+AjTcPTqRsj4N4WS9HMQTvgSQlj7XdgE+
lpc_rms=-21.39
offset=32
pitch_keycenter=f5
sample=Violin2Solo_tenuto_half_FF_F5.opus
</region>

<region>
hikey=f6
hivel=127
lokey=e6
lovel=1
lpc=mrLkQMdNXcAqWoZAfSYpvzlZAkDuRDpA5HyqP0Ku/b1QMfo/Cz5jPwx5az+8fnw/wmzsP2npvj6pmt4/UBUsP7NKMz9pPJbAD8lFQGJe4r9GvVg/jxJAvrSdN8BfSKA/
lpc_rms=-17.66
offset=103
pitch_keycenter=f6
sample=Violin2Solo_tenuto_half_FF_F6.opus
</region>

<region>
hivel=127
key=g3
lovel=1
lpc=afoWQTAC3cFbjhxCr7UNwhTwukH5DW7Bqu9EQQvpJ8Ex3uVATTZ+wMVoNkBgDHPAmWFmQO2shL8E6VQ/7jaQwKjA80CHU8nABWZfQHgpSMBRO3lA6QlDwEppnD/AOBi+
lpc_rms=-18.48
offset=36
sample=Violin2Solo_tenuto_half_FF_G3.opus
</region>

<region>
hikey=g4
hivel=127
lokey=f#4
lovel=1
lpc=1Iv8QFGmlMGRo6ZBG0Z0wdYOI0FkzMfApaTkP0aMob9VgRRA9JKbv1L0ib8GOGo/TCGvvvC0Sj9WjB+/ltICv7lesz+Wk9W/dBgLQI00A7+9CS6/FXbRvqz+zD+imEG/
lpc_rms=-20.32
offset=3
pitch_keycenter=g4
sample=Violin2Solo_tenuto_half_FF_G4.opus
</region>

<region>
hikey=g5
hivel=127
lokey=f#5
lovel=1
lpc=fS06QJBmUcCEjEVAWTQswMhOIECuzLa/o7m+P3REwr9F6pI/FtuCPcQidz6utUq+QG2kPx0xeb9cg4A/EC5Qv2r96D7SpkG++XCJP/mRmb5zZAe+CN+CP1tmGb/HnjE/
lpc_rms=-20.34
offset=15
pitch_keycenter=g5
sample=Violin2Solo_tenuto_half_FF_G5.opus
</region>

<region>
hikey=g6
hivel=127
lokey=f#6
lovel=1
lpc=w1wQQepqi8Dl4yNA60W3P3AjLkB2TqQ/wAkCQA4wOr6pWCBA2v7hP7PzBkB2QVI/zKNbQLmEMD7k/ppAXn24wDbFTj/JhVhANatZv4ePeT5s6Vm9QSm5Pm5+5D6Gypc/
lpc_rms=-20.64
offset=212
pitch_keycenter=g6
sample=Violin2Solo_tenuto_half_FF_G6.opus
</region>
</group>